<svg preserveAspectRatio="none" width="100%" height="100%" overflow="visible" style="display: block;" viewBox="0 0 72 72" fill="none" xmlns="http://www.w3.org/2000/svg">
<g id="bmw-svgrepo-com 1">
<path id="Shape" d="M36 4.59854C18.6569 4.59854 4.59854 18.6569 4.59854 36C4.59854 53.3431 18.6569 67.4015 36 67.4015C53.3431 67.4015 67.4015 53.3431 67.4015 36C67.4015 18.6569 53.3431 4.59854 36 4.59854ZM65.3518 36C65.3518 52.2131 52.2131 65.3518 36 65.3518C19.7869 65.3518 6.64818 52.2131 6.64818 36C6.64818 19.7869 19.7869 6.64818 36 6.64818C52.2131 6.64818 65.3518 19.7869 65.3518 36Z" fill="var(--fill-0, #B6B6B6)"/>
<g id="Group">
<path id="W_60_" d="M51.2159 22.6796C51.6363 23.1263 52.267 23.8884 52.6086 24.3351L58.9677 20.2884C58.6524 19.8679 58.1531 19.2373 57.759 18.7906L53.7385 21.4446L53.4758 21.6811L53.686 21.392L55.4728 17.8446L54.2115 16.5833L50.6641 18.3701L50.375 18.5803L50.6115 18.3176L53.2655 14.2971C52.7925 13.903 52.3458 13.5351 51.7677 13.0884L47.721 19.4475C48.2203 19.8417 48.9035 20.4198 49.3239 20.8139L53.1342 18.8431L53.3707 18.6592L53.1867 18.8957L51.2159 22.6796Z" fill="var(--fill-0, #B6B6B6)"/>
<path id="M_60_" d="M36.7896 14.6387L38.5239 10.7497L38.629 10.4081L38.6028 10.776L38.7867 15.9789C39.3911 16.0314 40.0217 16.1103 40.6524 16.2154L40.3634 8.5161C39.4962 8.41099 38.629 8.35844 37.7619 8.30588L36.0539 12.5628L36.0013 12.8781L35.9488 12.5628L34.2407 8.30588C33.3736 8.33216 32.5064 8.41099 31.6393 8.5161L31.3502 16.2154C31.9809 16.1103 32.6115 16.0314 33.2159 15.9789L33.3999 10.776L33.3736 10.4081L33.4787 10.7497L35.213 14.6387H36.7896Z" fill="var(--fill-0, #B6B6B6)"/>
<path id="B_x5F_22d_60_" d="M22.7312 20.7614C23.7298 19.7103 24.3079 18.4752 23.3093 17.319C22.7575 16.6884 21.8378 16.557 21.0758 16.8723L20.9969 16.8986L21.0232 16.8198C21.1283 16.5307 21.2071 15.5584 20.3926 14.9015C19.9984 14.5862 19.4991 14.4548 18.9998 14.5073C18.0539 14.6125 17.3444 15.2431 15.3473 17.4504C14.7429 18.1073 13.8758 19.1584 13.3502 19.8417L18.7896 24.992C20.6028 22.9949 21.3123 22.2592 22.7312 20.7614ZM15.6626 19.5C16.7663 18.1599 17.9225 16.9511 18.448 16.4781C18.6057 16.3205 18.7896 16.1628 19.0261 16.1103C19.394 16.0052 19.7619 16.2679 19.8407 16.6358C19.9196 17.0037 19.6831 17.3453 19.4466 17.6344C18.8422 18.2913 16.7137 20.5249 16.7137 20.5249L15.6626 19.5ZM17.7911 21.5234C17.7911 21.5234 19.867 19.3424 20.5239 18.6329C20.7867 18.3438 20.9707 18.1862 21.1546 18.1073C21.3911 18.0022 21.6539 17.976 21.8904 18.1336C22.1269 18.2913 22.232 18.5541 22.1794 18.8168C22.1006 19.1322 21.8641 19.4212 21.6539 19.6577C21.3648 19.973 18.921 22.5745 18.921 22.5745L17.7911 21.5234Z" fill="var(--fill-0, #B6B6B6)"/>
</g>
<path id="Vector" d="M36 17.3956V36H17.3956C17.3956 25.6993 25.6993 17.3956 36 17.3956Z" fill="var(--fill-0, #B6B6B6)"/>
<path id="Vector_2" d="M54.6044 36C54.6044 46.3007 46.2745 54.6044 36 54.6044V36H54.6044Z" fill="var(--fill-0, #B6B6B6)"/>
</g>
</svg>
