<svg preserveAspectRatio="none" width="100%" height="100%" overflow="visible" style="display: block;" viewBox="0 0 72 72" fill="none" xmlns="http://www.w3.org/2000/svg">
<g id="chevrolet-svgrepo-com 1">
<path id="Vector" d="M70.1194 28.4198L49.8643 28.4227C49.3488 28.4227 49.0118 28.2701 49.0118 27.5587V24.552C49.0118 23.6851 48.5453 23.2272 47.6986 23.2272H24.5088C23.6419 23.2272 23.1955 23.7168 23.1955 24.5434V27.5501C23.1955 28.1837 22.896 28.4141 22.3402 28.4141L9.06624 28.417C8.0496 28.417 7.45632 28.9008 7.15104 29.5373L0.685441 42.169C0.601921 42.3302 0.552961 42.5174 0.552961 42.7075C0.552961 43.2058 0.878401 43.8538 1.7856 43.8538L22.3373 43.8509C22.9709 43.8509 23.1926 44.1389 23.1926 44.7149V47.7187C23.1926 48.6259 23.7168 49.0349 24.5088 49.0349H47.6957C48.4848 49.0349 49.0118 48.6518 49.0118 47.7274L49.009 44.7235C49.009 44.1101 49.2682 43.8595 49.8614 43.8595L62.7523 43.8566C63.6394 43.8566 64.2787 43.6234 64.7251 42.7968L71.1158 30.312C71.257 30.0413 71.3491 29.8886 71.3491 29.569C71.3491 28.7165 70.6176 28.4198 70.1194 28.4198ZM65.0131 33.4512L61.9315 39.479C61.7386 39.8304 61.3958 39.8419 61.1539 39.8419H45.8669C45.2333 39.8419 45.0029 40.127 45.0029 40.703V44.1706C45.0029 44.7437 44.7494 45.023 44.1331 45.023H28.0714C27.5328 45.023 27.2045 44.833 27.2045 44.1619V40.6973C27.2045 40.0637 26.9136 39.839 26.3376 39.839H7.59168C7.13088 39.839 6.81408 39.551 6.81408 39.1478C6.81408 39.0298 6.84288 38.9232 6.89472 38.8224L9.97632 32.7974C10.0944 32.5872 10.2874 32.4346 10.751 32.4346L26.3376 32.4374C26.8762 32.4374 27.2102 32.2214 27.2102 31.5677V28.1002C27.2102 27.4867 27.4781 27.2419 28.0714 27.2419L44.1302 27.239C44.7062 27.239 44.9942 27.4954 44.9942 28.1088V31.5734C44.9942 32.1696 45.2707 32.4317 45.8669 32.4317H64.3133C64.9008 32.4317 65.0938 32.8176 65.0938 33.1258C65.0938 33.2381 65.065 33.3504 65.0131 33.4512Z" fill="var(--fill-0, #B6B6B6)"/>
</g>
</svg>
