<svg preserveAspectRatio="none" width="100%" height="100%" overflow="visible" style="display: block;" viewBox="0 0 72 72" fill="none" xmlns="http://www.w3.org/2000/svg">
<g id="ford-svgrepo-com 1" clip-path="url(#clip0_0_22)">
<path id="Vector" d="M36 24.708C17.616 24.708 2.715 29.79 2.715 36.006C2.715 42.222 17.616 47.301 36 47.301C54.381 47.301 69.282 42.222 69.282 36.006C69.282 29.787 54.381 24.708 36 24.708ZM18.906 43.428C16.938 43.443 15.207 42.228 15.006 40.125C14.8918 39.0292 15.208 37.9319 15.888 37.065C16.473 36.303 17.463 35.67 18.3 35.514C18.57 35.463 18.939 35.496 19.092 35.676C19.329 35.955 19.26 36.258 19.023 36.378C18.384 36.705 17.613 37.263 17.232 38.028C17.0575 38.3524 16.9748 38.7183 16.9927 39.0862C17.0107 39.4541 17.1287 39.8102 17.334 40.116C18.123 41.307 20.325 41.34 22.371 39.441C22.878 38.973 23.331 38.529 23.79 38.001C24.69 36.969 24.99 36.591 26.19 34.929C26.205 34.911 26.208 34.887 26.202 34.875C26.193 34.854 26.175 34.845 26.142 34.845C25.341 34.866 24.642 35.106 23.967 35.61C23.772 35.754 23.49 35.733 23.367 35.547C23.229 35.337 23.328 35.058 23.553 34.902C24.642 34.143 25.833 34.008 27.051 33.801C27.051 33.801 27.135 33.807 27.204 33.711C27.705 33.072 28.08 32.496 28.614 31.848C29.148 31.188 29.844 30.588 30.372 30.132C31.11 29.496 31.584 29.283 32.064 29.022C32.193 28.956 32.049 28.875 32.01 28.875C29.322 28.371 26.529 27.717 23.859 28.707C22.011 29.397 21.198 30.861 21.588 31.842C21.867 32.535 22.779 32.652 23.637 32.232C24.3831 31.862 25.0162 31.2983 25.47 30.6C25.731 30.198 26.28 30.486 25.983 31.185C25.203 33.018 23.712 34.476 21.894 34.539C20.346 34.587 19.347 33.45 19.35 32.046C19.356 29.274 22.44 27.45 25.68 27.18C29.583 26.856 33.279 27.897 37.155 28.365C40.122 28.725 42.969 28.734 45.951 28.047C46.305 27.972 46.551 28.197 46.53 28.551C46.5 29.067 46.101 29.562 45.12 30.099C44.001 30.711 42.831 30.897 41.61 30.909C38.658 30.933 35.907 29.781 33.06 29.163C33.066 29.286 33.096 29.436 32.991 29.514C31.416 30.678 29.991 31.86 29.037 33.516C29.004 33.555 29.022 33.591 29.076 33.588C29.907 33.543 30.651 33.522 31.425 33.462C31.56 33.45 31.566 33.417 31.554 33.318C31.5116 33.0113 31.544 32.6988 31.6485 32.4074C31.753 32.1159 31.9264 31.854 32.154 31.644C32.67 31.185 33.315 31.134 33.744 31.464C34.224 31.842 34.185 32.523 33.918 33.033C33.7991 33.257 33.6364 33.4547 33.4395 33.6145C33.2427 33.7743 33.0156 33.8928 32.772 33.963C32.772 33.963 32.682 33.981 32.694 34.065C32.712 34.194 33.294 34.518 33.345 34.605C33.396 34.686 33.369 34.815 33.282 34.911C33.2474 34.9532 33.2039 34.9871 33.1546 35.0105C33.1054 35.0338 33.0515 35.046 32.997 35.046C32.898 35.046 32.838 35.01 32.709 34.941C32.4002 34.7772 32.1253 34.5563 31.899 34.29C31.827 34.197 31.788 34.194 31.602 34.203C30.765 34.254 29.46 34.38 28.575 34.491C28.362 34.515 28.329 34.557 28.287 34.632C26.877 36.957 25.371 39.462 23.718 41.142C21.942 42.942 20.469 43.416 18.906 43.428ZM57.15 32.13C56.877 32.604 51.603 40.632 51.27 41.46C51.165 41.724 51.15 41.925 51.258 42.072C51.534 42.444 52.149 42.225 52.533 41.958C53.676 41.172 54.468 40.218 55.344 39.384C55.395 39.345 55.482 39.33 55.539 39.384C55.668 39.504 55.857 39.657 55.989 39.795C56.0007 39.8058 56.0102 39.8188 56.0169 39.8332C56.0236 39.8477 56.0273 39.8633 56.0278 39.8792C56.0284 39.8952 56.0258 39.911 56.0201 39.9259C56.0145 39.9408 56.006 39.9544 55.995 39.966C55.1936 40.9733 54.2841 41.8898 53.283 42.699C51.873 43.791 50.466 44.07 49.767 43.371C49.5205 43.1138 49.3719 42.7784 49.347 42.423C49.341 42.252 49.254 42.243 49.173 42.321C48.339 43.146 46.893 44.058 45.579 43.407C44.481 42.867 44.226 41.553 44.43 40.449C44.433 40.425 44.412 40.269 44.277 40.359C44 40.5604 43.6973 40.7239 43.377 40.845C43.0326 41.0023 42.6576 41.0812 42.279 41.076C42.0068 41.0791 41.7385 41.0106 41.501 40.8774C41.2636 40.7442 41.0653 40.551 40.926 40.317C40.7489 39.9979 40.6512 39.6408 40.641 39.276C40.638 39.243 40.59 39.18 40.542 39.261C39.642 40.632 38.805 41.958 37.917 43.35C37.869 43.416 37.827 43.458 37.737 43.461L35.976 43.464C35.868 43.464 35.817 43.38 35.874 43.275C36.186 42.675 37.896 40.185 39.054 38.067C39.375 37.485 39.309 37.185 39.111 37.056C38.862 36.894 38.367 37.137 37.95 37.455C36.813 38.316 35.859 39.66 35.373 40.26C35.088 40.611 34.818 41.133 34.074 41.94C32.901 43.215 31.344 43.947 29.85 43.44C29.4554 43.3063 29.0996 43.0777 28.814 42.7743C28.5284 42.4709 28.3217 42.102 28.212 41.7C28.167 41.544 28.08 41.502 27.993 41.604C27.753 41.904 27.258 42.351 26.844 42.63C26.799 42.663 26.688 42.729 26.592 42.681C26.4114 42.5056 26.2577 42.3044 26.136 42.084C26.1179 42.044 26.1128 41.9993 26.1214 41.9563C26.13 41.9132 26.1519 41.874 26.184 41.844C26.775 41.325 27.099 41.031 27.357 40.704C27.549 40.464 27.696 40.194 27.867 39.759C28.227 38.853 29.046 37.161 30.681 36.285C31.285 35.943 31.949 35.72 32.637 35.628C32.937 35.598 33.186 35.634 33.276 35.868C33.309 35.967 33.393 36.183 33.444 36.342C33.477 36.438 33.453 36.513 33.339 36.555C32.379 36.921 31.41 37.488 30.744 38.385C29.985 39.399 29.781 40.623 30.288 41.325C30.657 41.835 31.254 41.925 31.83 41.742C32.7 41.466 33.444 40.653 33.828 39.753C34.242 38.766 34.308 37.602 34.002 36.576C33.954 36.399 33.999 36.264 34.113 36.168C34.344 35.979 34.665 35.832 34.758 35.784C34.8496 35.735 34.9561 35.7217 35.0569 35.7466C35.1578 35.7715 35.2458 35.833 35.304 35.919C35.622 36.39 35.793 37.053 35.814 37.74C35.832 37.887 35.892 37.89 35.964 37.815C36.534 37.209 37.062 36.561 37.668 36.075C38.223 35.634 38.934 35.274 39.597 35.289C40.455 35.307 40.881 35.889 40.854 36.927C40.851 37.059 40.944 37.047 41.007 36.96C41.2058 36.6613 41.4486 36.3943 41.727 36.168C42.321 35.679 42.927 35.46 43.56 35.502C44.34 35.562 44.964 36.273 44.835 37.083C44.8039 37.3392 44.7109 37.584 44.564 37.7962C44.4171 38.0084 44.2208 38.1816 43.992 38.301C43.7996 38.4035 43.5809 38.4457 43.3642 38.4221C43.1475 38.3986 42.9429 38.3104 42.777 38.169C42.6484 38.0474 42.5541 37.8942 42.5036 37.7246C42.453 37.555 42.448 37.3751 42.489 37.203C42.504 37.128 42.408 37.059 42.327 37.143C41.565 37.935 41.508 38.961 42.006 39.423C42.555 39.933 43.38 39.591 43.98 39.198C45.078 38.481 45.93 37.509 46.917 36.759C47.571 36.261 48.318 35.817 49.155 35.706C49.6148 35.6357 50.085 35.6896 50.517 35.862C51.117 36.105 51.495 36.612 51.543 37.05C51.555 37.179 51.651 37.194 51.732 37.08C52.206 36.342 54.747 32.529 54.957 32.13C55.017 32.007 55.089 31.989 55.224 31.989H57.042C57.147 31.989 57.195 32.049 57.15 32.13ZM50.19 38.742C50.1714 38.7793 50.1682 38.8224 50.181 38.862C50.19 38.922 50.271 38.982 50.349 39.012C50.379 39.021 50.394 39.042 50.361 39.108C50.136 39.588 49.932 39.864 49.65 40.281C49.4008 40.6495 49.0974 40.9782 48.75 41.256C48.216 41.697 47.478 42.177 46.866 41.856C46.596 41.715 46.476 41.334 46.485 41.028C46.497 40.164 46.881 39.276 47.592 38.403C48.456 37.338 49.413 36.786 50.04 37.089C50.688 37.398 50.484 38.154 50.19 38.742ZM32.343 33.099C32.3204 32.9073 32.3447 32.713 32.4137 32.5328C32.4826 32.3525 32.5943 32.1917 32.739 32.064C32.91 31.914 33.138 31.878 33.279 31.998C33.435 32.133 33.36 32.469 33.201 32.7C33.0283 32.9601 32.7672 33.1488 32.466 33.231C32.412 33.243 32.364 33.219 32.343 33.099ZM36 22.5C16.02 22.5 1.37329e-06 28.491 1.37329e-06 36C1.37329e-06 43.464 16.149 49.5 36 49.5C55.851 49.5 72 43.44 72 36C72 28.56 55.851 22.5 36 22.5ZM36 48.324C16.947 48.324 1.5 42.81 1.5 36.006C1.5 29.199 16.95 23.685 36 23.685C55.05 23.685 70.494 29.199 70.494 36.006C70.494 42.81 55.05 48.324 36 48.324Z" fill="var(--fill-0, #B6B6B6)"/>
</g>
<defs>
<clipPath id="clip0_0_22">
<rect width="72" height="72" fill="white"/>
</clipPath>
</defs>
</svg>
