<svg preserveAspectRatio="none" width="100%" height="100%" overflow="visible" style="display: block;" viewBox="0 0 72.0669 58.5605" fill="none" xmlns="http://www.w3.org/2000/svg">
<g id="Group">
<path id="Vector" d="M52.7892 4.84305C51.1749 12.2691 50.5291 15.6592 49.0762 20.9865C47.6233 26.3139 46.8161 30.8341 45.0404 33.2556C43.7489 35.0314 41.6502 36.1614 39.3901 36.3229C37.2915 36.4843 35.0314 36.4843 32.9327 36.3229C30.6726 36.1614 28.574 35.0314 27.2825 33.2556C25.5067 30.9955 24.5381 26.1525 23.2466 20.9865C21.9552 15.8206 21.148 12.2691 19.5336 4.84305L17.1121 5.00449C16.1435 5.00449 15.3363 5.16592 14.5291 5.32735C14.5291 5.32735 15.4978 20.5022 15.9821 26.9596C16.4664 33.7399 17.2735 45.0404 17.9193 53.7578C17.9193 53.7578 19.3722 53.9193 21.6323 54.0807C23.8924 54.2421 25.1839 54.2421 25.1839 54.2421C26.1525 50.3677 27.4439 45.2018 28.7354 42.9417C29.5426 41.6502 30.9955 40.843 32.6099 40.843C33.7399 40.6816 34.87 40.6816 36.1614 40.6816C37.2915 40.6816 38.4215 40.6816 39.713 40.843C41.3274 40.843 42.7803 41.6502 43.5874 42.9417C45.0404 45.2018 46.1704 50.3677 47.139 54.2421C47.139 54.2421 48.2691 54.2421 50.6906 54.0807C53.1121 53.9193 54.4036 53.7578 54.4036 53.7578C55.2108 45.2018 56.0179 33.7399 56.3408 26.9596C56.8251 20.5022 57.7937 5.32735 57.7937 5.32735C56.9865 5.16592 56.1794 5.16592 55.2108 5.00449L52.7892 4.84305Z" fill="var(--fill-0, #B6B6B6)"/>
<path id="Vector_2" d="M71.8386 13.8834C70.8699 4.19731 64.4125 2.26009 58.7623 1.29148C55.0493 0.807175 51.3363 0.484305 47.6233 0.32287C44.7175 0.161435 38.0987 0 36.1614 0C34.2242 0 27.4439 0.161435 24.6995 0.32287C20.8251 0.32287 17.1121 0.64574 13.3991 1.29148C7.74888 2.26009 1.29148 4.35875 0.32287 13.8834C0 17.1121 0 20.3408 0 23.5695C0 27.9283 0.32287 32.287 0.96861 36.6457C1.29148 40.3588 2.09865 43.9103 3.06726 47.6233C4.52018 51.8206 5.81166 53.1121 7.26457 54.2422C9.84753 56.0179 12.5919 56.9866 15.6592 57.4709C29.2197 58.9238 42.7803 58.9238 56.3408 57.4709C59.4081 56.9866 62.1525 56.0179 64.7354 54.2422C66.3498 52.9507 67.6412 51.8206 68.9327 47.6233C69.9013 44.0718 70.7085 40.3588 71.0314 36.6457C71.5157 32.287 71.8386 27.9283 72 23.5695C72.1614 20.3408 72 17.1121 71.8386 13.8834ZM68.287 30.0269C68.1256 35.3543 67.3184 40.5202 66.0269 45.6861C65.5426 48.1076 64.2511 50.2063 62.4753 51.9821C60.0538 53.9193 57.148 55.0493 54.2421 55.2108C42.1345 56.5022 30.0269 56.5022 17.9193 55.2108C14.852 55.0493 12.1076 53.9193 9.6861 51.9821C7.91031 50.2063 6.78027 48.1076 6.13453 45.6861C4.84305 40.5202 4.19731 35.3543 3.87444 30.0269C3.55157 24.6996 3.55157 19.2108 4.03587 13.8834C5.00448 7.74888 7.91031 4.84305 14.3677 3.71301C17.9193 3.06727 21.6323 2.7444 25.1839 2.58296C28.2511 2.42153 33.2556 2.26009 36.1614 2.26009C39.0673 2.26009 44.0717 2.26009 47.139 2.58296C50.6906 2.7444 54.4036 3.06727 57.9551 3.71301C64.4125 4.84305 67.3184 7.91032 68.1255 13.8834C68.4484 19.2108 68.6099 24.6996 68.287 30.0269Z" fill="var(--fill-0, #B6B6B6)"/>
</g>
</svg>
