<svg preserveAspectRatio="none" width="100%" height="100%" overflow="visible" style="display: block;" viewBox="0 0 71.8637 36.8691" fill="none" xmlns="http://www.w3.org/2000/svg">
<g id="Group">
<path id="Vector" d="M35.9318 36.8691C55.7851 36.8691 71.8637 28.6126 71.8637 18.4388C71.8637 8.26509 55.7851 0 35.9318 0C16.0871 0 0 8.25657 0 18.4303C0 28.604 16.0871 36.8691 35.9318 36.8691ZM42.6802 27.8116C42.0923 29.192 41.0528 32.1657 38.6925 33.3415C37.9683 33.6824 37.0736 33.8613 36.2982 33.8869C36.1193 33.9124 36 33.8869 35.9574 33.8869C29.3198 33.8869 23.1508 32.9837 17.9787 31.3988C17.9361 31.3733 17.8168 31.3307 17.8168 31.3307C17.297 31.1688 17.0499 30.9472 17.0499 30.6746C17.0499 30.4445 17.1607 30.2656 17.3482 30.0866C17.4163 30.0185 17.5271 29.9247 17.6634 29.7884C18.8393 28.7915 22.4691 26.1841 29.209 23.5683C31.5948 22.6651 34.56 21.5318 37.6701 20.8672C39.5105 20.5179 46.2674 19.5039 42.6802 27.8116ZM60.8719 9.24497C60.9827 9.01491 61.1702 8.81894 61.4854 8.81894C61.6644 8.79337 61.8689 8.8445 62.2097 9.06604C66.4274 11.6649 68.9496 14.9112 68.9496 18.4303C68.9496 24.7953 60.7867 30.2485 49.1304 32.6429C48.3806 32.8047 47.8864 32.8047 47.7075 32.6002C47.5967 32.4639 47.5456 32.285 47.7075 32.0379C47.7756 31.9015 47.8693 31.7908 48.0227 31.6289C54.3792 24.1307 59.2274 13.0623 60.5822 9.84994C60.6674 9.5858 60.7697 9.3813 60.8719 9.24497ZM29.2942 8.99787C29.8821 7.61752 30.9217 4.64379 33.2819 3.46793C34.0062 3.11006 34.9008 2.94817 35.6762 2.9226C35.8551 2.9226 35.9915 2.9226 36.0341 2.9226C42.6461 2.9226 48.8237 3.85136 53.9872 5.41065C54.0298 5.41065 54.1491 5.45326 54.1917 5.47882C54.6689 5.64071 54.916 5.86225 54.916 6.13491C54.916 6.38201 54.7796 6.54391 54.6177 6.72284C54.5496 6.79101 54.4388 6.90178 54.3025 7.02107C53.1011 8.01799 49.5224 10.6253 42.7569 13.2071C40.3711 14.1359 37.4059 15.2436 34.2959 15.9337C32.4554 16.3001 25.707 17.3226 29.2942 8.99787ZM22.7844 4.21775C23.5342 4.05586 24.1221 4.05586 24.2755 4.26035C24.3863 4.37112 24.4374 4.57562 24.2755 4.82272C24.2073 4.95905 24.1136 5.06982 23.9773 5.24876C17.6123 12.747 12.7725 23.8154 11.4178 27.0021C11.307 27.2322 11.2133 27.4537 11.1195 27.5901C10.9832 27.8201 10.8043 27.9991 10.506 28.0161C10.3441 28.0161 10.1226 27.9735 9.75621 27.769C5.53846 25.1702 2.93964 21.9238 2.93964 18.4047C2.97373 12.0653 11.1366 6.60355 22.7844 4.21775Z" fill="var(--fill-0, #B6B6B6)"/>
<path id="Vector_2" d="M35.9318 0C16.0871 0 0 8.23101 0 18.4047C0 28.5785 16.0871 36.8095 35.9318 36.8095C55.7851 36.8095 71.8637 28.5529 71.8637 18.4047C71.8637 8.23101 55.7851 0 35.9318 0ZM60.906 30.4275C54.2684 33.8272 45.4069 35.7103 35.9403 35.7103C26.4738 35.7103 17.6293 33.8187 10.9917 30.4275C4.60118 27.1385 1.09917 22.8866 1.09917 18.4218C1.09917 13.9569 4.61822 9.69657 11.0002 6.40757C17.6379 2.98225 26.4994 1.12473 35.9659 1.12473C45.4324 1.12473 54.2854 2.99929 60.9316 6.40757C67.3306 9.69657 70.8327 13.9569 70.8327 18.4133C70.8327 22.8696 67.3051 27.1385 60.906 30.4275Z" fill="var(--fill-0, #B6B6B6)"/>
</g>
</svg>
