<svg preserveAspectRatio="none" width="100%" height="100%" overflow="visible" style="display: block;" viewBox="0 0 71.9883 51.7177" fill="none" xmlns="http://www.w3.org/2000/svg">
<g id="Group">
<path id="Vector" d="M36 51.7177C47.9177 51.7177 58.4941 47.553 65.0471 41.1412L59.1412 41.1647C53.5647 45.8588 45.4 48.8118 36.1529 48.8118C18.8941 48.8118 5.4353 38.5294 5.4353 25.8471C5.4353 11.2118 18.9059 2.88236 36.1529 2.88236C37.2471 2.88236 38.1294 3.38825 37.4706 4.34119C33.8824 8.65883 23.6706 22.553 21.8118 25.5647C18.1412 31.4941 18.2235 38.8 27.2235 39.3177H65.0588C66.9882 39.3177 67.4824 38.4118 68.1765 37.4706C70.7059 34.0471 72 30.0353 71.9883 25.8588C71.9765 14.953 64.3059 6.78825 53.0235 2.76472L51.2824 5.37648C60.6588 8.8353 66.8588 15.8353 66.8588 25.8588C66.8588 27.6 66.6 29.2941 66.1177 30.9294C65.6941 32.3412 64.8824 33.5412 63.3294 33.5412H33.1412C29.2706 33.5412 30.7647 29.553 32.2 27.6118C34.2824 23.8824 45.6588 8.37648 48.4 5.48236C49.0941 4.42354 51.0588 2.22354 48.353 1.38825C44.5059 0.470598 40.3412 1.01546e-05 36 1.01546e-05C16.1177 -0.0117546 0.0117711 10.2 6.43174e-06 25.8471C-0.0117583 41.6471 16.1177 51.7177 36 51.7177Z" fill="var(--fill-0, #B6B6B6)"/>
</g>
</svg>
