<svg preserveAspectRatio="none" width="100%" height="100%" overflow="visible" style="display: block;" viewBox="0 0 72 72" fill="none" xmlns="http://www.w3.org/2000/svg">
<g id="mazda-svgrepo-com 1">
<path id="Vector" d="M66.0162 17.7568C65.773 17.4649 65.4324 17.1243 65.1892 16.8324C57.8919 9 45.973 7.2973 35.9514 7.2973C25.8324 7.2973 13.573 9 6.37297 17.3189C6.27568 17.4649 6.12973 17.6108 6.03243 17.7568C2.52973 21.9892 0.34054 27.973 0.34054 36.0486C0.34054 60.9568 20.5784 64.9459 35.9514 64.9459C51.373 64.9459 71.6595 60.9568 71.6595 36.0486C71.6595 27.973 69.5189 21.9405 66.0162 17.7568ZM12.7459 21.6973C17.5622 14.3027 26.6595 12.5027 35.9514 12.5027C45.2432 12.5027 54.1946 14.2054 59.0595 21.4541C59.1568 21.6 59.2541 21.7946 59.3514 21.9892C51.0324 26.9027 41.5946 27.0973 35.9514 39.2595C29.773 27.4378 20.4324 27.3405 12.2595 22.6216C12.4054 22.3297 12.6 22.0378 12.7459 21.6973ZM35.9514 59.7405C22.1351 59.8378 9.24324 55.8486 9.24324 36.0486C9.24324 34.5892 9.24324 33.0811 9.48649 31.8162C9.53513 31.5243 9.63243 31.2324 9.68108 30.9405C14.3027 32.5946 18.8757 34.1514 23.5459 35.7081C28.9946 37.9459 32.6432 41.1568 35.9514 48.3568C39.2595 41.1568 42.8108 37.5081 48.3081 35.2703C53.027 33.6162 57.6486 31.9135 62.3676 30.2595C62.4162 30.3568 62.4162 30.5027 62.4649 30.6C62.7081 32.2054 62.8054 34.1027 62.8054 36.0486C62.8541 55.8486 49.7676 59.8865 35.9514 59.7405Z" fill="var(--fill-0, #B6B6B6)"/>
</g>
</svg>
