<svg preserveAspectRatio="none" width="100%" height="100%" overflow="visible" style="display: block;" viewBox="0 0 71.4434 71.4434" fill="none" xmlns="http://www.w3.org/2000/svg">
<g id="Group">
<path id="Vector" d="M36.4807 35.5193L38.0492 34.558L58.0857 48.2699L36.4807 35.5193Z" fill="var(--fill-0, #B6B6B6)"/>
<path id="Vector_2" d="M35.3169 34.7604L33.8496 33.9002L35.5193 7.74139L35.3169 34.7604Z" fill="var(--fill-0, #B6B6B6)"/>
<path id="Vector_3" d="M33.546 34.6592L26.9178 40.1743L34.8616 35.4687L33.546 34.6592Z" fill="var(--fill-0, #B6B6B6)"/>
<path id="Vector_4" d="M35.7217 0C15.9888 0 0 15.9888 0 35.7217C0 55.4547 15.9888 71.4434 35.7217 71.4434C55.4547 71.4434 71.4434 55.4547 71.4434 35.7217C71.4434 15.9888 55.4547 0 35.7217 0ZM35.7217 69.4701C27.5755 69.4701 19.9353 66.7379 14.2178 61.7793C8.70274 56.922 4.40197 49.1806 3.33942 40.9838C5.86929 56.6184 19.3788 68.5088 35.7217 68.5088C53.8356 68.5088 68.5088 53.8356 68.5088 35.7217C68.5088 28.1827 65.7259 20.8461 61.4252 15.331C65.7259 18.6704 69.4701 28.1321 69.4701 35.7217C69.5207 54.3921 54.3921 69.4701 35.7217 69.4701ZM32.6353 33.1412L35.5193 3.54181C35.5699 3.54181 35.6711 3.54181 35.7217 3.54181H35.7723L36.0759 34.7098L41.0344 31.7245L36.0759 3.54181C53.6838 3.6936 67.9016 18.0632 67.9016 35.6711C67.9016 41.338 66.4343 46.6507 63.8538 51.3057L41.5404 32.6353L39.4153 33.8496L63.702 51.6093C63.6514 51.7105 63.6008 51.8117 63.4996 51.9129L36.1771 36.1771V41.6922L63.2973 52.1658C57.681 61.5264 47.4097 67.8004 35.7217 67.8004C24.0337 67.8004 13.7625 61.5264 8.14617 52.2164L35.2663 41.6922V36.1265L7.94378 51.8117C7.89318 51.7105 7.84259 51.6093 7.74139 51.5081L31.9269 33.799L29.8018 32.5847L7.539 51.1539C5.00914 46.5495 3.54181 41.2874 3.54181 35.6205C3.54181 18.1138 17.5573 3.89599 34.9628 3.49122L30.6114 31.9775L32.6353 33.1412ZM35.7217 1.9227C17.1019 1.9227 1.9733 17.0513 1.9733 35.6711C1.9733 43.2607 4.70555 50.3949 8.90513 56.6184C10.3219 59.3001 11.8398 60.9192 13.9143 63.0949C5.86929 56.669 0.657765 46.7519 0.657765 35.6711C0.657765 16.2923 16.3429 0.607168 35.7217 0.607168C55.1005 0.607168 71.0892 17.0007 70.4821 35.6711C70.0267 17.4561 54.0885 1.9227 35.7217 1.9227Z" fill="var(--fill-0, #B6B6B6)"/>
</g>
</svg>
