<svg preserveAspectRatio="none" width="100%" height="100%" overflow="visible" style="display: block;" viewBox="0 0 71.4353 49.6706" fill="none" xmlns="http://www.w3.org/2000/svg">
<g id="Group">
<path id="Vector" d="M57.5647 13.3529C53.4235 5.42353 45.1177 0 35.5412 0C25.9647 0 17.6588 5.42353 13.5176 13.3529H57.5647Z" fill="var(--fill-0, #B6B6B6)"/>
<path id="Vector_2" d="M13.4941 36.2824C17.6353 44.2353 25.9529 49.6706 35.5412 49.6706C45.1294 49.6706 53.4471 44.2353 57.5882 36.2824H13.4941Z" fill="var(--fill-0, #B6B6B6)"/>
<g id="Group_2">
<path id="Vector_3" d="M50.1529 22.1177C50.0824 21.9294 50.0235 21.7882 50.0118 21.7882C50 21.7882 49.9412 21.9412 49.8706 22.1177L48.7176 25.2C48.6471 25.3882 48.7529 25.5294 48.9529 25.5294H51.0706C51.2706 25.5294 51.3765 25.3765 51.3059 25.2L50.1529 22.1177Z" fill="var(--fill-0, #B6B6B6)"/>
<path id="Vector_4" d="M69.2941 15.4941H2.14118C0.964706 15.4941 0 16.4588 0 17.6353V21.6706V28.2353V32.2706C0 33.4471 0.964706 34.4118 2.14118 34.4118H69.2941C70.4706 34.4118 71.4353 33.4471 71.4353 32.2706V28.0941V21.8V17.6353C71.4353 16.4588 70.4706 15.4941 69.2941 15.4941ZM15.5412 29.8706C15.5412 30.0706 15.3765 30.2235 15.1882 30.2235H11.2353C11.0353 30.2235 10.8118 30.0824 10.7294 29.8941L7.28235 22.4706C7.2 22.2941 7.12941 22.1529 7.12941 22.1647C7.12941 22.1765 7.11765 22.3412 7.11765 22.5412L7.07059 29.8706C7.07059 30.0706 6.90588 30.2235 6.70588 30.2235H4.81176C4.61176 30.2235 4.45882 30.0588 4.45882 29.8706V19.8353C4.45882 19.6353 4.62353 19.4824 4.81176 19.4824H9.04706C9.24706 19.4824 9.47059 19.6353 9.54118 19.8118L12.6353 27.2118C12.7059 27.3882 12.7765 27.3765 12.7765 27.1882V19.8471C12.7765 19.6471 12.9412 19.4941 13.1294 19.4941H15.1765C15.3765 19.4941 15.5294 19.6588 15.5294 19.8471V29.8706H15.5412ZM20.7059 29.8706C20.7059 30.0706 20.5412 30.2235 20.3529 30.2235H18.3059C18.1059 30.2235 17.9529 30.0588 17.9529 29.8706V19.8353C17.9529 19.6353 18.1176 19.4824 18.3059 19.4824H20.3529C20.5529 19.4824 20.7059 19.6471 20.7059 19.8353V29.8706ZM32.7647 26.7529C32.7647 28.1882 31.7059 29.8118 30.3412 30.0824H26.8118H23.1059V27.7176L28.9529 27.6353C29.6824 27.6235 29.7294 27.2 29.7176 26.9059C29.7176 26.9059 29.8588 25.9765 28.8588 25.9765H25.6118C23.6588 25.9765 22.6118 24.7529 22.6118 22.6588C22.6118 19.7176 24.2941 19.3765 27 19.3765C29.7059 19.3765 31.7647 19.3412 31.7647 19.3412L31.7294 21.7765C29.7765 21.7765 28.0824 21.7882 27 21.7882C25.5059 21.7882 25.5176 21.8353 25.5176 22.7176C25.5176 23.5059 25.6353 23.5059 26.8588 23.5059L30.3529 23.5412C32.8471 23.5529 32.7647 26.7529 32.7647 26.7529ZM43.8824 26.7529C43.8824 28.1882 42.8235 29.8118 41.4588 30.0824H37.9294H34.2353V27.7176L40.0824 27.6353C40.8118 27.6235 40.8588 27.2 40.8471 26.9059C40.8471 26.9059 40.9882 25.9765 39.9882 25.9765H36.7412C34.7882 25.9765 33.7412 24.7529 33.7412 22.6588C33.7412 19.7176 35.4235 19.3765 38.1294 19.3765C40.8353 19.3765 42.8941 19.3412 42.8941 19.3412L42.8588 21.7765C40.9059 21.7765 39.2118 21.7882 38.1294 21.7882C36.6353 21.7882 36.6471 21.8353 36.6471 22.7176C36.6471 23.5059 36.7647 23.5059 37.9882 23.5059L41.4824 23.5412C43.9647 23.5529 43.8824 26.7529 43.8824 26.7529ZM55.6824 29.9765H53.5882C53.3882 29.9765 53.1647 29.8353 53.0706 29.6588L52.4824 28.4471C52.4 28.2706 52.1647 28.1294 51.9647 28.1294H48.0824C47.8824 28.1294 47.6471 28.2706 47.5647 28.4471L46.9412 29.6588C46.8471 29.8353 46.6235 29.9765 46.4235 29.9765H44.2706C44.0706 29.9765 43.9647 29.8235 44.0353 29.6471L47.7529 19.5647C47.8235 19.3765 48.0353 19.2353 48.2353 19.2353H51.7176C51.9176 19.2353 52.1294 19.3882 52.2 19.5647L55.9294 29.6471C55.9882 29.8235 55.8824 29.9765 55.6824 29.9765ZM68.2 29.8706C68.2 30.0706 68.0353 30.2235 67.8471 30.2235H63.8941C63.6941 30.2235 63.4706 30.0824 63.3882 29.8941L59.9412 22.4706C59.8588 22.2941 59.7882 22.1529 59.7882 22.1647C59.7882 22.1765 59.7765 22.3412 59.7765 22.5412L59.7294 29.8706C59.7294 30.0706 59.5647 30.2235 59.3647 30.2235H57.4588C57.2588 30.2235 57.1059 30.0588 57.1059 29.8706V19.8353C57.1059 19.6353 57.2706 19.4824 57.4588 19.4824H61.6941C61.8941 19.4824 62.1176 19.6353 62.1882 19.8118L65.2824 27.2118C65.3529 27.3882 65.4235 27.3765 65.4235 27.1882V19.8471C65.4235 19.6471 65.5882 19.4941 65.7765 19.4941H67.8353C68.0353 19.4941 68.1882 19.6588 68.1882 19.8471V29.8706H68.2Z" fill="var(--fill-0, #B6B6B6)"/>
</g>
</g>
</svg>
