<svg preserveAspectRatio="none" width="100%" height="100%" overflow="visible" style="display: block;" viewBox="0 0 63.1609 39.1301" fill="none" xmlns="http://www.w3.org/2000/svg">
<path id="Vector" d="M31.5817 0C14.1391 0 0 8.76116 0 19.5656C0 30.3698 14.1391 39.1301 31.5817 39.1301C49.0244 39.1301 63.1609 30.3724 63.1609 19.5656C63.1609 8.75858 49.0227 0 31.5817 0ZM48.0366 8.38654C48.8558 10.6954 45.2995 12.8657 39.3126 13.884L39.3023 13.8969C38.5124 9.10283 36.7781 5.41519 34.5826 3.64534C41.509 4.06913 47.1655 5.93156 48.0366 8.38654ZM31.5808 8.14354C33.3119 8.14354 34.8015 10.5284 35.49 14.3459H35.4996C34.2564 14.4384 32.9468 14.4894 31.5808 14.4894C30.215 14.4894 28.9071 14.4384 27.664 14.3459H27.6735C28.3612 10.5284 29.8517 8.14354 31.5808 8.14354ZM15.126 8.38654C15.998 5.93078 21.6537 4.06834 28.58 3.64534C26.3837 5.41519 24.6502 9.10192 23.8587 13.896L23.8492 13.884C17.863 12.8657 14.3051 10.6945 15.126 8.38654ZM5.24994 19.857C5.24994 17.6814 5.97052 15.6079 7.27499 13.7178C7.32517 13.6451 7.37703 13.5717 7.42889 13.499C7.47907 13.4289 7.53104 13.3588 7.58291 13.2896C7.58639 13.2854 7.58898 13.281 7.59247 13.2767C7.64433 13.2066 7.69799 13.1374 7.75244 13.0673C7.80779 12.9963 7.86404 12.9246 7.92198 12.8545C7.97215 12.7914 8.02413 12.729 8.07599 12.6659C8.19108 12.5292 8.30864 12.3935 8.42981 12.2594C8.45141 12.2343 8.4739 12.2101 8.4973 12.185C8.54658 12.1287 8.59766 12.0734 8.64952 12.0189C8.71263 11.9505 8.77754 11.8823 8.84324 11.8148C9.08804 11.5613 9.3442 11.313 9.6106 11.0691C9.64953 11.0328 9.68935 10.9972 9.72907 10.9618C9.75337 10.9393 9.77845 10.9168 9.80343 10.8952C9.85799 10.8459 9.91334 10.7974 9.96959 10.7498C9.97567 10.7439 9.98084 10.7386 9.98692 10.7343C10.0275 10.6989 10.0674 10.6642 10.1089 10.6297C10.1487 10.5959 10.1884 10.5613 10.2291 10.5284C10.9938 14.0864 16.069 17.1408 23.414 18.4608L23.4192 18.4548C23.402 18.9133 23.3933 19.37 23.3924 19.8276C23.3924 27.209 25.299 33.0316 28.1086 35.6535C15.2074 34.625 5.24994 27.9434 5.24994 19.857ZM31.5808 30.363C29.1985 30.363 27.2669 25.5654 27.2669 19.2385C27.2669 19.1399 27.2687 19.0413 27.2704 18.947L27.2851 18.9729C28.6648 19.0906 30.0982 19.1581 31.5817 19.1581C33.0653 19.1581 34.5082 19.0915 35.8957 18.9703L35.894 18.9729C35.894 19.0594 35.8975 19.1485 35.8975 19.2385C35.8975 25.5654 33.9615 30.363 31.5808 30.363ZM35.0557 35.6535C37.8654 33.0325 39.7711 27.209 39.7711 19.8276C39.7711 19.364 39.7616 18.9089 39.7452 18.4574L39.7478 18.4608C47.0928 17.1416 52.1671 14.0846 52.9345 10.5301C53.0313 10.6106 53.1265 10.6919 53.2208 10.7749C53.2545 10.8026 53.2874 10.8321 53.3202 10.8623C53.3617 10.8978 53.4025 10.935 53.444 10.9722C53.4803 11.0042 53.5158 11.0363 53.5512 11.0691C53.6109 11.1236 53.6706 11.1781 53.7294 11.2343C53.7873 11.2879 53.8454 11.3433 53.9024 11.3986C53.912 11.4073 53.9214 11.4168 53.931 11.4263C53.995 11.4877 54.0572 11.55 54.1195 11.6124C54.187 11.679 54.2536 11.7464 54.3193 11.8148C54.4509 11.9496 54.5789 12.0863 54.7026 12.2248C54.7692 12.2983 54.8349 12.3726 54.8998 12.4462C54.9561 12.5111 55.0122 12.5768 55.0668 12.6425C55.0737 12.6504 55.0797 12.6582 55.0867 12.6659C55.1956 12.7956 55.302 12.9272 55.405 13.0596C55.4629 13.1339 55.5192 13.2083 55.5754 13.2828C55.6291 13.3545 55.6826 13.4272 55.7346 13.499C55.7865 13.5717 55.8375 13.6443 55.8886 13.717C57.1939 15.6062 57.9136 17.6797 57.9136 19.857C57.9136 27.9434 47.9561 34.6241 35.0557 35.6535Z" fill="var(--fill-0, #B6B6B6)"/>
</svg>
