<svg preserveAspectRatio="none" width="100%" height="100%" overflow="visible" style="display: block;" viewBox="0 0 69.75 12.4091" fill="none" xmlns="http://www.w3.org/2000/svg">
<path id="Vector" d="M34.792 6.20325C34.7816 2.77335 37.5471 0.00697622 41.0012 0.000901222C44.3706 0.00607622 47.1387 2.77335 47.2061 6.20325C47.1387 9.59422 44.3715 12.3615 41.0012 12.4091C37.5471 12.3615 34.7816 9.59422 34.792 6.20325ZM41.0012 10.1228C42.8654 10.0942 44.4095 8.34244 44.4285 6.20325C44.4095 4.02244 42.8654 2.2716 41.0012 2.28375C39.0557 2.27082 37.5082 4.02244 37.5696 6.20325C37.5082 8.34244 39.0557 10.0942 41.0012 10.1228ZM54.2294 2.60989V12.0821H51.6179V2.60989H47.8601V0.490501H57.8246V2.60989H54.2294ZM60.9257 9.4662L59.9482 12.0821H56.847L61.7457 0.490501H65.0113L69.75 12.0821H66.6479L65.6678 9.4662H60.9257ZM65.0113 7.50949L63.3798 3.26295L61.7457 7.50949H65.0113ZM6.20754 2.60989V12.0821H3.59425V2.60989H0V0.490501H9.80092V2.60989H6.20754ZM10.4557 6.20235C10.4609 2.77245 13.2247 0.006075 16.6598 0C20.0508 0.005175 22.8189 2.77245 22.8682 6.20235C22.818 9.59333 20.05 12.3606 16.6598 12.4082C13.2247 12.3606 10.4609 9.59333 10.4557 6.20235ZM16.6598 10.1219C18.5465 10.0933 20.0889 8.34165 20.0906 6.20235C20.0889 4.02165 18.5465 2.27081 16.6598 2.28285C14.7333 2.26991 13.1884 4.02165 13.2334 6.20235C13.1884 8.34165 14.7333 10.0933 16.6598 10.1219ZM30.0541 12.0812V7.67205L34.6293 0.490501H31.6899L28.7488 5.38583L25.9712 0.490501H22.8682L27.4435 7.67205V12.0812H30.0541Z" fill="var(--fill-0, #B6B6B6)"/>
</svg>
