<svg preserveAspectRatio="none" width="100%" height="100%" overflow="visible" style="display: block;" viewBox="0 0 45.7764 45.8564" fill="none" xmlns="http://www.w3.org/2000/svg">
<path id="Icon" d="M27.8762 10.0002C29.8297 10.3813 31.625 11.3367 33.0324 12.744C34.4397 14.1514 35.3951 15.9467 35.7762 17.9002M27.8762 2.00018C31.9348 2.45105 35.7194 4.26853 38.6087 7.15419C41.498 10.0399 43.3203 13.8222 43.7762 17.8802M41.7762 33.8402V39.8402C41.7785 40.3972 41.6644 40.9485 41.4413 41.4589C41.2181 41.9692 40.8908 42.4274 40.4804 42.8039C40.0699 43.1805 39.5854 43.4671 39.0577 43.6456C38.5301 43.824 37.971 43.8903 37.4162 43.8402C31.2619 43.1715 25.3502 41.0685 20.1562 37.7002C15.3239 34.6295 11.2269 30.5325 8.15623 25.7002C4.77619 20.4826 2.67272 14.5422 2.01623 8.36018C1.96625 7.80711 2.03198 7.2497 2.20923 6.72343C2.38649 6.19715 2.67138 5.71355 3.04577 5.30342C3.42016 4.89328 3.87584 4.5656 4.38382 4.34122C4.89179 4.11685 5.44091 4.0007 5.99623 4.00018H11.9962C12.9668 3.99062 13.9078 4.33433 14.6438 4.96724C15.3797 5.60015 15.8604 6.47907 15.9962 7.44018C16.2495 9.36031 16.7191 11.2456 17.3962 13.0602C17.6653 13.776 17.7236 14.554 17.564 15.3019C17.4045 16.0499 17.034 16.7364 16.4962 17.2802L13.9562 19.8202C16.8033 24.8273 20.9491 28.9731 25.9562 31.8202L28.4962 29.2802C29.04 28.7425 29.7265 28.3719 30.4745 28.2124C31.2224 28.0529 32.0004 28.1111 32.7162 28.3802C34.5308 29.0573 36.4161 29.5269 38.3362 29.7802C39.3078 29.9172 40.195 30.4066 40.8293 31.1552C41.4636 31.9037 41.8006 32.8593 41.7762 33.8402Z" stroke="var(--stroke-0, #E1AE01)" stroke-width="4" stroke-linecap="round" stroke-linejoin="round"/>
</svg>
