<svg preserveAspectRatio="none" width="100%" height="100%" overflow="visible" style="display: block;" viewBox="0 0 22.0136 22.0136" fill="none" xmlns="http://www.w3.org/2000/svg">
<g id="icn bxs-star">
<path id="Vector" d="M20.1298 8.41929C20.0722 8.24948 19.9661 8.10027 19.8246 7.99008C19.6831 7.87989 19.5124 7.81355 19.3337 7.79924L14.1045 7.38374L11.8417 2.37472C11.7696 2.21339 11.6524 2.07637 11.5042 1.98018C11.356 1.884 11.1831 1.83276 11.0064 1.83267C10.8297 1.83257 10.6568 1.88361 10.5084 1.97963C10.3601 2.07566 10.2427 2.21255 10.1705 2.3738L7.90768 7.38374L2.67853 7.79924C2.50284 7.81316 2.33488 7.8774 2.19474 7.98428C2.0546 8.09115 1.94822 8.23614 1.88833 8.40189C1.82843 8.56765 1.81756 8.74714 1.857 8.91891C1.89645 9.09069 1.98455 9.24745 2.11076 9.37047L5.97507 13.1375L4.60839 19.0555C4.56689 19.2347 4.58019 19.4221 4.64656 19.5936C4.71294 19.7651 4.82932 19.9127 4.98061 20.0172C5.13189 20.1217 5.3111 20.1784 5.49497 20.1798C5.67885 20.1812 5.8589 20.1273 6.01176 20.0251L11.0061 16.6955L16.0004 20.0251C16.1567 20.1288 16.3409 20.1822 16.5284 20.1781C16.7159 20.174 16.8977 20.1125 17.0492 20.0021C17.2007 19.8916 17.3148 19.7373 17.3761 19.5601C17.4373 19.3828 17.4429 19.1911 17.3919 19.0106L15.7143 13.1403L19.8748 9.39615C20.1473 9.15033 20.2472 8.76693 20.1298 8.41929V8.41929Z" fill="var(--fill-0, #E1AE01)"/>
</g>
</svg>
