<svg preserveAspectRatio="none" width="100%" height="100%" overflow="visible" style="display: block;" viewBox="0 0 22.0136 22.0136" fill="none" xmlns="http://www.w3.org/2000/svg">
<g id="icn bxs-star">
<path id="Vector" d="M20.1321 8.41929C20.0744 8.24948 19.9683 8.10027 19.8268 7.99008C19.6853 7.87989 19.5147 7.81355 19.3359 7.79924L14.1068 7.38374L11.8439 2.37472C11.7719 2.21339 11.6547 2.07637 11.5064 1.98018C11.3582 1.884 11.1853 1.83276 11.0086 1.83267C10.8319 1.83257 10.659 1.88361 10.5107 1.97963C10.3623 2.07566 10.245 2.21255 10.1727 2.3738L7.90992 7.38374L2.68077 7.79924C2.50508 7.81316 2.33712 7.8774 2.19698 7.98428C2.05684 8.09115 1.95046 8.23614 1.89057 8.40189C1.83067 8.56765 1.8198 8.74714 1.85925 8.91891C1.8987 9.09069 1.98679 9.24745 2.11301 9.37047L5.97731 13.1375L4.61063 19.0555C4.56914 19.2347 4.58244 19.4221 4.64881 19.5936C4.71518 19.7651 4.83156 19.9127 4.98285 20.0172C5.13414 20.1217 5.31334 20.1784 5.49722 20.1798C5.68109 20.1812 5.86114 20.1273 6.014 20.0251L11.0083 16.6955L16.0027 20.0251C16.1589 20.1288 16.3432 20.1822 16.5307 20.1781C16.7182 20.174 16.8999 20.1125 17.0514 20.0021C17.203 19.8916 17.3171 19.7373 17.3783 19.5601C17.4396 19.3828 17.4451 19.1911 17.3941 19.0106L15.7165 13.1403L19.8771 9.39615C20.1495 9.15033 20.2495 8.76693 20.1321 8.41929V8.41929Z" fill="var(--fill-0, #E1AE01)"/>
</g>
</svg>
