<svg preserveAspectRatio="none" width="100%" height="100%" overflow="visible" style="display: block;" viewBox="0 0 22.0136 22.0136" fill="none" xmlns="http://www.w3.org/2000/svg">
<g id="icn bxs-star">
<path id="Vector" d="M20.1295 8.41929C20.0718 8.24948 19.9657 8.10027 19.8242 7.99008C19.6827 7.87989 19.5121 7.81355 19.3333 7.79924L14.1042 7.38374L11.8413 2.37472C11.7693 2.21339 11.6521 2.07637 11.5038 1.98018C11.3556 1.884 11.1827 1.83276 11.006 1.83267C10.8294 1.83257 10.6564 1.88361 10.5081 1.97963C10.3598 2.07566 10.2424 2.21255 10.1701 2.3738L7.90733 7.38374L2.67818 7.79924C2.50249 7.81316 2.33453 7.8774 2.19439 7.98428C2.05425 8.09115 1.94787 8.23614 1.88798 8.40189C1.82808 8.56765 1.81721 8.74714 1.85665 8.91891C1.8961 9.09069 1.9842 9.24745 2.11041 9.37047L5.97472 13.1375L4.60804 19.0555C4.56654 19.2347 4.57984 19.4221 4.64621 19.5936C4.71259 19.7651 4.82897 19.9127 4.98025 20.0172C5.13154 20.1217 5.31075 20.1784 5.49462 20.1798C5.6785 20.1812 5.85855 20.1273 6.01141 20.0251L11.0057 16.6955L16.0001 20.0251C16.1563 20.1288 16.3406 20.1822 16.5281 20.1781C16.7156 20.174 16.8973 20.1125 17.0488 20.0021C17.2004 19.8916 17.3145 19.7373 17.3757 19.5601C17.437 19.3828 17.4425 19.1911 17.3915 19.0106L15.7139 13.1403L19.8745 9.39615C20.1469 9.15033 20.2469 8.76693 20.1295 8.41929V8.41929Z" fill="var(--fill-0, #E1AE01)"/>
</g>
</svg>
