<svg preserveAspectRatio="none" width="100%" height="100%" overflow="visible" style="display: block;" viewBox="0 0 22.0136 22.0136" fill="none" xmlns="http://www.w3.org/2000/svg">
<g id="icn bxs-star">
<path id="Vector" d="M20.1308 8.41929C20.0731 8.24948 19.967 8.10027 19.8255 7.99008C19.684 7.87989 19.5134 7.81355 19.3346 7.79924L14.1054 7.38374L11.8426 2.37472C11.7706 2.21339 11.6534 2.07637 11.5051 1.98018C11.3569 1.884 11.184 1.83276 11.0073 1.83267C10.8306 1.83257 10.6577 1.88361 10.5094 1.97963C10.361 2.07566 10.2437 2.21255 10.1714 2.3738L7.90861 7.38374L2.67946 7.79924C2.50377 7.81316 2.33581 7.8774 2.19567 7.98428C2.05553 8.09115 1.94915 8.23614 1.88926 8.40189C1.82936 8.56765 1.81849 8.74714 1.85794 8.91891C1.89738 9.09069 1.98548 9.24745 2.11169 9.37047L5.976 13.1375L4.60932 19.0555C4.56782 19.2347 4.58112 19.4221 4.6475 19.5936C4.71387 19.7651 4.83025 19.9127 4.98154 20.0172C5.13282 20.1217 5.31203 20.1784 5.49591 20.1798C5.67978 20.1812 5.85983 20.1273 6.01269 20.0251L11.007 16.6955L16.0014 20.0251C16.1576 20.1288 16.3419 20.1822 16.5294 20.1781C16.7169 20.174 16.8986 20.1125 17.0501 20.0021C17.2017 19.8916 17.3157 19.7373 17.377 19.5601C17.4383 19.3828 17.4438 19.1911 17.3928 19.0106L15.7152 13.1403L19.8758 9.39615C20.1482 9.15033 20.2482 8.76693 20.1308 8.41929V8.41929Z" fill="var(--fill-0, #E1AE01)"/>
</g>
</svg>
