<svg preserveAspectRatio="none" width="100%" height="100%" overflow="visible" style="display: block;" viewBox="0 0 22.0136 22.0136" fill="none" xmlns="http://www.w3.org/2000/svg">
<g id="icn bx-star">
<path id="Vector" d="M5.9773 13.1376L4.61062 19.0556C4.5683 19.2348 4.581 19.4226 4.64707 19.5945C4.71314 19.7664 4.82951 19.9143 4.98097 20.019C5.13243 20.1237 5.31195 20.1803 5.49607 20.1814C5.6802 20.1825 5.86038 20.128 6.01307 20.0252L11.0074 16.6956L16.0017 20.0252C16.158 20.1289 16.3422 20.1823 16.5297 20.1782C16.7172 20.1741 16.899 20.1126 17.0505 20.0022C17.202 19.8917 17.3161 19.7374 17.3774 19.5602C17.4387 19.3829 17.4442 19.1912 17.3932 19.0107L15.7156 13.1404L19.8761 9.39624C20.0094 9.27626 20.1046 9.11984 20.1499 8.94635C20.1952 8.77285 20.1886 8.58988 20.131 8.42007C20.0735 8.25025 19.9674 8.10104 19.8259 7.99088C19.6844 7.88072 19.5137 7.81445 19.335 7.80025L14.1058 7.38383L11.843 2.37481C11.7709 2.21352 11.6536 2.07656 11.5053 1.98046C11.357 1.88436 11.1841 1.83322 11.0074 1.83322C10.8307 1.83322 10.6578 1.88436 10.5095 1.98046C10.3613 2.07656 10.244 2.21352 10.1718 2.37481L7.90899 7.38383L2.67984 7.79934C2.50415 7.81326 2.33619 7.8775 2.19605 7.98437C2.05591 8.09125 1.94953 8.23624 1.88964 8.40199C1.82974 8.56774 1.81887 8.74724 1.85832 8.91901C1.89776 9.09078 1.98586 9.24755 2.11207 9.37056L5.9773 13.1376V13.1376ZM8.59417 9.16968C8.75789 9.15679 8.91512 9.10008 9.04939 9.00551C9.18366 8.91094 9.29002 8.782 9.35731 8.63219L11.0074 4.98068L12.6575 8.63219C12.7248 8.782 12.8312 8.91094 12.9654 9.00551C13.0997 9.10008 13.2569 9.15679 13.4207 9.16968L17.0639 9.45861L14.0636 12.159C13.8031 12.3938 13.6995 12.7552 13.7949 13.0927L14.9442 17.1148L11.5174 14.8299C11.367 14.729 11.1899 14.6751 11.0088 14.6751C10.8276 14.6751 10.6506 14.729 10.5002 14.8299L6.9193 17.2175L7.88239 13.0478C7.91771 12.8944 7.91297 12.7345 7.86863 12.5835C7.8243 12.4325 7.74185 12.2955 7.62924 12.1856L4.84268 9.4687L8.59417 9.16968V9.16968Z" fill="var(--fill-0, #E1AE01)"/>
</g>
</svg>
